<?xml version="1.0" encoding="UTF-8"?>
<svg version="1.1" xmlns="http://www.w3.org/2000/svg" width="1000" height="1000">
<path d="M0 0 C3.35041357 0.01709083 6.70011147 0.00688303 10.05050087 -0.01031494 C35.46495545 -0.1207233 60.57222022 1.90014988 85.64550781 6.14111328 C86.40635681 6.26705872 87.16720581 6.39300415 87.95111084 6.52276611 C180.19456997 21.86856141 268.37789991 64.07613157 337.50878906 127.12548828 C338.8691956 128.3526046 340.23573988 129.57362877 341.63305664 130.75854492 C347.8471619 136.05782971 353.58767141 141.80669549 359.34790039 147.58813477 C361.07945481 149.32504928 362.8162914 151.05655217 364.55371094 152.78759766 C370.25684584 158.48705516 375.81050387 164.23127266 381.02050781 170.39111328 C381.94540123 171.43992353 382.8724148 172.48686875 383.80175781 173.53173828 C391.77549841 182.60716197 399.03283929 192.16129918 406.18310547 201.89355469 C407.91496141 204.24764535 409.65989124 206.59147241 411.40722656 208.93408203 C467.33345804 284.4596111 501.66291457 382.42302577 504.41162109 496.37060547 C504.39453026 499.72101904 504.40473806 503.07071694 504.42193604 506.42110634 C504.53234439 531.83556092 502.51147121 556.94282569 498.27050781 582.01611328 C498.08158966 583.15738678 498.08158966 583.15738678 497.88885498 584.32171631 C482.54305968 676.56517544 440.33548953 764.74850538 377.28613281 833.87939453 C376.0590165 835.23980107 374.83799232 836.60634535 373.65307617 838.00366211 C368.35379138 844.21776737 362.60492561 849.95827688 356.82348633 855.71850586 C355.08657181 857.45006028 353.35506892 859.18689687 351.62402344 860.92431641 C345.92456593 866.62745131 340.18034843 872.18110934 334.02050781 877.39111328 C332.97169757 878.3160067 331.92475235 879.24302027 330.87988281 880.17236328 C321.80445912 888.14610388 312.25032192 895.40344476 302.51806641 902.55371094 C300.16397575 904.28556688 297.82014868 906.03049671 295.47753906 907.77783203 C219.95201 963.70406351 121.98859533 998.03352004 8.04101562 1000.78222656 C4.69060205 1000.76513573 1.34090415 1000.77534353 -2.00948524 1000.7925415 C-27.42393983 1000.90294986 -52.53120459 998.88207668 -77.60449219 994.64111328 C-78.74576569 994.45219513 -78.74576569 994.45219513 -79.91009521 994.25946045 C-172.15355435 978.91366515 -260.33688428 936.706095 -329.46777344 873.65673828 C-330.82817997 872.42962196 -332.19472426 871.20859779 -333.59204102 870.02368164 C-339.80614628 864.72439685 -345.54665579 858.97553108 -351.30688477 853.1940918 C-353.03843919 851.45717728 -354.77527578 849.72567439 -356.51269531 847.99462891 C-362.21583022 842.2951714 -367.76948824 836.5509539 -372.97949219 830.39111328 C-373.90438561 829.34230303 -374.83139918 828.29535781 -375.76074219 827.25048828 C-383.73448279 818.17506459 -390.99182367 808.62092738 -398.14208984 798.88867188 C-399.87394579 796.53458122 -401.61887561 794.19075415 -403.36621094 791.84814453 C-459.29244241 716.32261547 -493.62189895 618.3592008 -496.37060547 504.41162109 C-496.35351464 501.06120752 -496.36372244 497.71150962 -496.38092041 494.36112022 C-496.49132877 468.94666564 -494.47045559 443.83940088 -490.22949219 418.76611328 C-490.04057404 417.62483978 -490.04057404 417.62483978 -489.84783936 416.46051025 C-474.50204406 324.21705112 -432.2944739 236.03372119 -369.24511719 166.90283203 C-368.01800087 165.54242549 -366.7969767 164.17588121 -365.61206055 162.77856445 C-360.31277576 156.56445919 -354.56390998 150.82394968 -348.7824707 145.0637207 C-347.04555619 143.33216628 -345.3140533 141.59532969 -343.58300781 139.85791016 C-337.88355031 134.15477525 -332.13933281 128.60111723 -325.97949219 123.39111328 C-324.93068194 122.46621986 -323.88373672 121.53920629 -322.83886719 120.60986328 C-313.7634435 112.63612268 -304.20930629 105.3787818 -294.47705078 98.22851562 C-292.12296012 96.49665968 -289.77913306 94.75172985 -287.43652344 93.00439453 C-211.91099437 37.07816306 -113.9475797 2.74870652 0 0 Z " fill="#1AA51A" transform="translate(495.9794921875,-0.39111328125)"/>
<path d="M0 0 C125.4 0 250.8 0 380 0 C380 46.2 380 92.4 380 140 C254.6 140 129.2 140 0 140 C0 93.8 0 47.6 0 0 Z " fill="#00C8FF" transform="translate(370,150)"/>
<path d="M0 0 C122.1 0 244.2 0 370 0 C370 46.2 370 92.4 370 140 C247.9 140 125.8 140 0 140 C0 93.8 0 47.6 0 0 Z " fill="#00C8FF" transform="translate(250,710)"/>
<path d="M0 0 C82.5 0 165 0 250 0 C250 46.2 250 92.4 250 140 C167.5 140 85 140 0 140 C0 93.8 0 47.6 0 0 Z " fill="#00C8FF" transform="translate(370,430)"/>
<path d="M0 0 C42.9 0 85.8 0 130 0 C130 46.2 130 92.4 130 140 C87.1 140 44.2 140 0 140 C0 93.8 0 47.6 0 0 Z " fill="#00C8FF" transform="translate(620,570)"/>
<path d="M0 0 C39.6 0 79.2 0 120 0 C120 46.2 120 92.4 120 140 C80.4 140 40.8 140 0 140 C0 93.8 0 47.6 0 0 Z " fill="#00C8FF" transform="translate(250,290)"/>
</svg>
